<svg xmlns="http://www.w3.org/2000/svg" xmlns:xlink="http://www.w3.org/1999/xlink" width="200" height="200" class="icon" p-id="4382" t="1715865726218" version="1.1" viewBox="0 0 1024 1024"><path fill="#FF6968" d="M235.8 67.9C153 87.4 87.4 153 67.9 235.8L235.8 67.9z" p-id="4383"/><path fill="#FF6867" d="M301.7 62H287C163.3 62 62 163.3 62 287v14.7L301.7 62z" p-id="4384"/><path fill="#FF6866" d="M361.7 62H287C163.3 62 62 163.3 62 287v74.7L361.7 62z" p-id="4385"/><path fill="#FF6765" d="M421.6 62H287C163.3 62 62 163.3 62 287v134.6L421.6 62z" p-id="4386"/><path fill="#FF6764" d="M481.6 62H287c-19.4 0-38.3 2.5-56.3 7.2L69.2 230.7c-4.7 18-7.2 36.9-7.2 56.3v194.6L481.6 62z" p-id="4387"/><path fill="#FF6763" d="M62 541.6L541.6 62H297.9L62 297.9z" p-id="4388"/><path fill="#FF6662" d="M62 601.6L601.6 62H357.8L62 357.8z" p-id="4389"/><path fill="#FF6661" d="M62 417.8v243.7L661.5 62H417.8z" p-id="4390"/><path fill="#FF6560" d="M62 477.8v243.7L721.5 62H477.8z" p-id="4391"/><path fill="#FF655F" d="M737 62H537.8L62 537.8V737c0 13.9 1.3 27.5 3.7 40.8l712-712C764.5 63.3 750.9 62 737 62z" p-id="4392"/><path fill="#FF655E" d="M737 62H597.7L62 597.7V737c0 30.8 6.3 60.1 17.6 86.9L823.9 79.6C797.1 68.3 767.8 62 737 62z" p-id="4393"/><path fill="#FF645D" d="M862.8 100.7C826.8 76.3 783.5 62 737 62h-79.3L62 657.7V737c0 46.5 14.3 89.8 38.7 125.8l762.1-762.1z" p-id="4394"/><path fill="#FF645C" d="M895.6 127.8C854.9 87.2 798.7 62 737 62h-19.3L62 717.7V737c0 61.7 25.2 117.9 65.8 158.6l767.8-767.8z" p-id="4395"/><path fill="#FF635B" d="M65.2 774.5C75.6 835.8 111 889 160.6 922.8l762.3-762.3c-33.9-49.5-87-85-148.3-95.4L65.2 774.5z" p-id="4396"/><path fill="#FF635A" d="M78.5 821.2c22.4 55.1 66.2 99.6 120.8 122.9l744.8-744.8c-23.3-54.7-67.8-98.4-122.9-120.8L78.5 821.2z" p-id="4397"/><path fill="#FF635A" d="M99.2 860.5c33 49.9 85.3 86.1 146.1 97.6l712.8-712.8c-11.5-60.8-47.7-113.1-97.6-146.1L99.2 860.5z" p-id="4398"/><path fill="#FF6259" d="M962 287c0-63-26.2-120.1-68.3-161.1L125.9 893.7C166.9 935.8 224 962 287 962h14.3L962 301.3V287z" p-id="4399"/><path fill="#FF6258" d="M962 287c0-47.8-15.1-92.2-40.7-128.7l-763 763C194.8 946.9 239.2 962 287 962h74.3L962 361.3V287z" p-id="4400"/><path fill="#FF6157" d="M962 287c0-32.1-6.8-62.7-19.1-90.4L196.6 942.9c27.7 12.3 58.3 19.1 90.4 19.1h134.3L962 421.3V287z" p-id="4401"/><path fill="#FF6156" d="M287 962h194.2L962 481.2V287c0-15.4-1.6-30.4-4.5-44.9L242.1 957.5c14.5 2.9 29.5 4.5 44.9 4.5z" p-id="4402"/><path fill="#FF6155" d="M541.2 962L962 541.2V297.5L297.5 962z" p-id="4403"/><path fill="#FF6054" d="M601.2 962L962 601.2V357.5L357.5 962z" p-id="4404"/><path fill="#FF6053" d="M661.2 962L962 661.2V417.4L417.4 962z" p-id="4405"/><path fill="#FF5F52" d="M721.1 962L962 721.1V477.4L477.4 962z" p-id="4406"/><path fill="#FF5F51" d="M962 737V537.4L537.4 962H737c17.1 0 33.7-1.9 49.7-5.6l169.7-169.7c3.7-16 5.6-32.6 5.6-49.7z" p-id="4407"/><path fill="#FF5F50" d="M962 597.4L597.4 962H737c123.8 0 225-101.3 225-225V597.4z" p-id="4408"/><path fill="#FF5E4F" d="M962 657.3L657.3 962H737c123.8 0 225-101.3 225-225v-79.7z" p-id="4409"/><path fill="#FF5E4E" d="M962 717.3L717.3 962H737c123.8 0 225-101.3 225-225v-19.7z" p-id="4410"/><path fill="#FF5D4D" d="M957.5 781.8L781.8 957.5c88-18 157.7-87.7 175.7-175.7z" p-id="4411"/><path fill="#FFF3F3" d="M512 512m-243 0a243 243 0 1 0 486 0 243 243 0 1 0-486 0Z" p-id="4412"/><path fill="#FFCDCB" d="M512 512m-207 0a207 207 0 1 0 414 0 207 207 0 1 0-414 0Z" p-id="4413"/><path fill="#FFF" d="M500.4 402.8h23.4v26.4H547c4.8-8 9.1-16.3 12.9-25l21.5 7.5c-3.1 6.9-6.5 12.7-10.1 17.6h40.2v49.1h-22v-30H434.7v30.2h-22.2v-49.4h41.7c-3.3-5.8-7.2-11.4-11.7-16.8l21.1-7.7c5.2 6.7 9.8 14.9 14 24.6h22.9v-26.5z m24.1 142.5c-3.3 26.7-10.2 44.3-20.8 52.9-11.5 11.1-39 18.2-82.4 21.5l-8.9-20.1c36.3-1.4 60.3-6.3 71.8-14.7 10.1-7.8 16.1-21.6 18-41.4l22.3 1.8z m62.7-28.7v64.8h-22v-45.2h-106V584h-22v-67.4h150z m-136.4-56.2h122.6v46.1H450.8v-46.1z m100.9 30.4v-14.5h-79.1v14.5h79.1z m-24.4 87.5c31 6.4 59 14.2 84 23.4l-12.6 19.4c-26.8-11.2-54.4-19.9-82.6-26l11.2-16.8z" p-id="4414"/></svg>