<svg width="36" height="36" viewBox="0 0 36 36" fill="none" xmlns="http://www.w3.org/2000/svg">
<rect width="36" height="36" rx="4" fill="#224888"/>
<path fill-rule="evenodd" clip-rule="evenodd" d="M25.8749 6.33325C25.8472 6.33325 25.8211 6.33776 25.7958 6.34453C25.7773 6.35129 25.7589 6.35881 25.7397 6.36558C25.1944 6.56856 24.4041 6.78808 23.5286 6.78808C23.5286 6.78808 16.638 6.78808 15.148 6.78808C14.612 6.78808 14.1404 7.04368 13.8601 7.43235C13.8578 7.43686 9.83337 15.2877 9.83337 15.2877C9.83337 15.2877 11.9178 15.5252 11.9746 15.5335C13.8309 15.8132 16.0335 16.3439 17.5619 17.2476C19.7584 18.5466 21.1308 20.4343 20.9918 22.4611C20.7223 26.3892 16.9552 28.1566 13.9929 28.5813C11.9132 28.864 10.5323 28.5813 10.5323 28.5813C10.5323 28.5813 12.2296 29.5865 14.6757 29.6601C18.8522 29.7864 22.1001 28.0423 23.8181 25.5209C26.5308 21.5425 25.0147 15.2102 17.9037 13.3248C16.5397 12.9632 14.6457 12.6211 14.6457 12.6211L15.6588 10.6695C15.8838 10.1177 16.449 9.72677 17.1118 9.72677C17.1426 9.72677 17.1733 9.72828 17.204 9.72978H20.5848C20.5856 9.72978 20.5871 9.72978 20.5879 9.72978C20.5886 9.72978 20.5902 9.72978 20.5925 9.72978H23.5962C24.1845 9.72978 24.696 9.4208 24.9609 8.96522L24.9893 8.9111L26.1076 6.77379C26.1291 6.74748 26.1444 6.71741 26.1544 6.68433C26.1621 6.66028 26.1667 6.63547 26.1667 6.60915C26.1667 6.4573 26.0361 6.33325 25.8749 6.33325Z" fill="white"/>
</svg>
